<?xml version="1.0" standalone="no"?>
<!DOCTYPE svg PUBLIC "-//W3C//DTD SVG 20010904//EN"
 "http://www.w3.org/TR/2001/REC-SVG-20010904/DTD/svg10.dtd">
<svg version="1.0" xmlns="http://www.w3.org/2000/svg"
 width="428.000000pt" height="428.000000pt" viewBox="0 0 428.000000 428.000000"
 preserveAspectRatio="xMidYMid meet">
<metadata>
Created by potrace 1.11, written by Peter Selinger 2001-2013
</metadata>
<g transform="translate(0.000000,428.000000) scale(0.100000,-0.100000)"
fill="#000000" stroke="none">
<path d="M1729 3797 c-13 -10 -16 -31 -16 -99 0 -48 4 -85 8 -83 6 4 19 -75
14 -83 -2 -2 -19 20 -39 48 -31 44 -40 50 -64 45 -27 -4 -62 -38 -62 -59 0
-13 20 -45 20 -33 0 4 12 -4 26 -20 17 -19 21 -29 13 -32 -7 -2 -15 1 -17 8
-2 6 -8 9 -13 5 -5 -3 -9 0 -9 7 0 7 -3 9 -6 6 -4 -3 -16 -1 -28 5 -27 15 -39
18 -107 23 -57 5 -68 -1 -74 -40 -2 -15 26 -45 42 -45 7 0 13 -5 13 -11 0 -5
5 -7 10 -4 6 3 10 1 10 -5 0 -6 6 -10 13 -8 6 2 33 -9 59 -25 26 -15 52 -27
58 -27 6 0 8 -4 5 -10 -3 -5 0 -10 8 -10 7 0 33 -18 57 -40 24 -22 47 -40 52
-40 5 0 7 -4 3 -9 -3 -6 1 -13 8 -18 12 -7 77 -96 77 -106 0 -2 -6 -4 -12 -5
-85 -10 -136 -20 -158 -29 -19 -8 -27 -10 -70 -18 -19 -3 -38 -11 -42 -18 -4
-7 -8 -9 -8 -5 0 23 -148 -48 -179 -85 -25 -30 -25 -30 -23 -254 1 -143 6
-231 13 -244 8 -17 8 -20 -1 -14 -9 6 -10 1 -4 -16 4 -13 8 -60 10 -104 1 -44
3 -80 4 -80 1 0 3 -22 5 -50 1 -27 6 -113 10 -190 4 -77 7 -160 6 -184 -1 -27
3 -47 11 -52 10 -7 10 -9 1 -9 -7 0 -13 -5 -13 -11 0 -5 5 -7 11 -3 8 4 8 0 0
-15 -7 -13 -8 -21 -2 -21 6 0 10 -16 9 -35 -1 -22 -5 -32 -12 -28 -8 5 -8 2 0
-8 6 -8 12 -48 12 -89 1 -41 2 -75 3 -75 2 0 7 -84 10 -187 1 -53 5 -95 9 -93
10 6 7 -40 -4 -47 -8 -6 -8 -8 0 -8 5 0 11 -21 13 -46 1 -26 -2 -43 -7 -40 -5
3 -12 -7 -15 -24 -4 -19 -12 -29 -24 -29 -10 0 -27 -2 -38 -5 -11 -2 -28 -5
-38 -5 -11 -1 -15 -6 -11 -13 4 -7 3 -8 -4 -4 -26 16 -142 -77 -158 -126 -3
-10 -10 -18 -15 -18 -5 0 -9 -11 -9 -24 0 -14 -4 -27 -8 -30 -5 -3 -8 -46 -7
-95 1 -85 3 -92 35 -140 19 -28 39 -51 43 -51 4 0 19 -11 31 -24 23 -22 24
-30 24 -152 0 -73 -5 -135 -11 -142 -5 -7 -7 -15 -4 -19 4 -3 1 -15 -5 -27 -7
-11 -13 -28 -14 -36 -2 -8 -4 -24 -6 -35 -2 -11 -8 -24 -14 -30 -6 -5 -14 -18
-17 -27 -6 -17 43 -18 933 -18 l940 0 1 23 c1 12 2 46 3 76 1 37 6 56 15 59 8
3 11 0 8 -5 -7 -12 14 -73 25 -73 4 0 8 -8 8 -18 0 -10 9 -28 20 -40 20 -21
29 -22 179 -22 154 0 159 1 154 20 -3 11 -9 17 -14 14 -5 -3 -9 4 -9 15 0 11
-7 26 -15 34 -15 15 -67 121 -71 146 -2 7 -7 18 -13 24 -6 6 -11 21 -11 34 0
13 -5 23 -12 23 -6 0 -9 3 -6 6 4 3 2 20 -4 37 -5 18 -11 41 -13 52 -2 11 -4
20 -5 20 -1 0 -3 9 -4 20 -2 11 -6 30 -10 43 -5 14 -3 22 4 22 6 0 8 5 5 10
-3 6 -3 10 2 10 37 0 110 126 115 200 2 25 8 48 13 52 6 5 6 8 -1 8 -6 0 -11
16 -12 36 -1 20 -13 59 -27 88 -26 54 -128 170 -139 159 -3 -4 -6 -1 -6 5 0 7
-9 12 -21 12 -11 0 -17 5 -14 10 3 6 -3 10 -14 10 -12 0 -21 5 -21 10 0 6 -3
9 -7 9 -5 -1 -10 0 -13 1 -17 6 -52 11 -100 15 -33 2 -54 8 -52 14 1 6 -3 11
-10 11 -6 0 -9 3 -5 6 11 11 -63 114 -82 114 -6 0 -11 3 -11 8 0 9 -65 45 -87
48 -9 2 -19 8 -23 15 -5 7 -19 10 -34 7 -15 -3 -24 -3 -21 0 2 3 0 11 -5 18
-6 6 -9 33 -7 58 2 25 1 46 -2 46 -7 0 -9 59 -11 393 -1 177 -5 247 -13 247
-8 0 -8 3 1 12 15 15 16 32 1 22 -8 -4 -8 -1 -2 12 8 17 10 40 3 47 -9 8 -6
53 4 59 8 5 8 8 0 8 -7 0 -12 33 -12 93 -6 363 -13 624 -17 634 -7 21 -87 73
-112 73 -13 0 -22 4 -19 9 5 7 -55 21 -109 26 -5 0 -14 3 -20 6 -5 4 -18 5
-27 4 -10 -2 -18 0 -18 4 0 7 -51 12 -122 14 -16 0 -28 5 -28 10 0 5 -6 5 -13
-2 -10 -8 -17 -7 -25 1 -7 7 -12 8 -12 2 0 -5 -13 -9 -29 -9 -18 -1 -27 3 -23
10 6 10 11 40 14 98 1 15 5 27 10 27 4 0 8 12 8 26 0 16 4 23 12 18 7 -4 8 -3
4 4 -4 6 1 28 10 49 10 21 18 40 19 43 12 33 65 121 65 107 0 -3 11 5 25 18
13 14 31 25 40 25 8 0 15 5 15 10 0 6 6 9 13 8 8 -2 12 13 13 47 1 42 -3 53
-23 66 -13 8 -20 19 -16 22 12 13 -17 7 -55 -10 -20 -9 -39 -17 -42 -17 -18
-3 -88 -97 -111 -148 -7 -16 -16 -28 -21 -28 -4 0 -8 -3 -7 -7 2 -16 -14 -53
-21 -48 -9 6 19 158 32 166 5 3 9 8 7 10 -1 2 1 15 5 29 18 58 9 79 -40 94
-23 7 -78 -29 -69 -45 4 -5 3 -9 -2 -9 -19 0 -43 -79 -49 -160 -1 -25 -3 -47
-4 -50 -3 -13 -24 49 -24 75 -1 17 -5 35 -8 41 -4 6 -9 45 -10 86 -2 42 -6 74
-9 72 -4 -2 -9 3 -13 11 -7 18 -54 19 -77 2z"/>
</g>
</svg>
